<?xml version="1.0" encoding="iso-8859-1"?>
<!-- Generator: Adobe Illustrator 19.0.0, SVG Export Plug-In . SVG Version: 6.00 Build 0)  -->
<svg version="1.1" id="Layer_1" xmlns="http://www.w3.org/2000/svg" xmlns:xlink="http://www.w3.org/1999/xlink" x="0px" y="0px"
	 viewBox="0 0 512 512" style="enable-background:new 0 0 512 512;" xml:space="preserve">
<polygon style="fill:#174461;" points="426.826,111.203 262.609,284.959 353.303,458.715 500.416,458.715 "/>
<polygon style="fill:#FF4181;" points="85.174,111.203 65.55,203.873 236.409,227.041 407.269,203.873 426.893,111.203 "/>
<polygon style="fill:#FFC0D5;" points="11.584,458.715 353.303,458.715 407.269,203.873 65.55,203.873 "/>
<path style="fill:#01121C;" d="M511.747,449.964l-73.59-346.923c-0.012-0.053-0.03-0.104-0.042-0.158
	c-0.038-0.168-0.087-0.332-0.132-0.498c-0.065-0.239-0.133-0.476-0.212-0.708c-0.05-0.145-0.107-0.287-0.162-0.431
	c-0.096-0.249-0.199-0.495-0.312-0.734c-0.059-0.126-0.122-0.25-0.185-0.374c-0.129-0.25-0.266-0.493-0.411-0.732
	c-0.068-0.112-0.137-0.224-0.21-0.334c-0.161-0.244-0.334-0.481-0.512-0.71c-0.053-0.068-0.096-0.142-0.152-0.211
	c-0.023-0.029-0.051-0.053-0.074-0.081c-0.204-0.246-0.419-0.48-0.641-0.707c-0.066-0.067-0.127-0.14-0.195-0.206
	c-0.286-0.279-0.585-0.543-0.898-0.79c-0.105-0.083-0.219-0.155-0.327-0.235c-0.212-0.156-0.425-0.312-0.648-0.453
	c-0.149-0.095-0.305-0.18-0.459-0.268c-0.193-0.111-0.387-0.221-0.587-0.321c-0.163-0.081-0.329-0.155-0.496-0.229
	c-0.204-0.09-0.41-0.176-0.619-0.254c-0.164-0.061-0.33-0.12-0.498-0.175c-0.226-0.073-0.454-0.137-0.685-0.196
	c-0.158-0.041-0.315-0.082-0.475-0.116c-0.257-0.054-0.518-0.095-0.781-0.132c-0.14-0.02-0.278-0.045-0.419-0.06
	c-0.322-0.034-0.649-0.049-0.976-0.054c-0.075-0.001-0.149-0.013-0.226-0.013h-0.068c-0.002,0-0.003,0-0.006,0H302.467
	c4.759-13.19,17.4-22.647,32.21-22.647c8.182,0,16.1,2.932,22.296,8.256c4.855,4.174,12.168,3.618,16.335-1.235
	c4.17-4.851,3.616-12.165-1.235-16.335c-10.395-8.933-23.676-13.853-37.396-13.853c-27.682,0-50.85,19.699-56.223,45.815H145.196
	c4.759-13.19,17.399-22.647,32.21-22.647c8.183,0,16.1,2.932,22.295,8.256c4.851,4.17,12.165,3.618,16.335-1.235
	c4.17-4.851,3.616-12.165-1.235-16.335c-10.394-8.933-23.675-13.853-37.395-13.853c-27.683,0-50.85,19.699-56.223,45.815h-36.01
	c-5.472,0-10.196,3.828-11.331,9.18l-19.642,92.6c-0.007,0.036-0.015,0.071-0.022,0.107L0.252,449.964
	c-0.725,3.418,0.131,6.98,2.331,9.696c2.2,2.715,5.507,4.292,9.002,4.292h341.651c5.472,0,10.196-3.828,11.331-9.18l62.259-293.503
	l59.292,279.516h-98.131c-6.397,0-11.584,5.187-11.584,11.584c0,6.397,5.187,11.584,11.584,11.584h112.429
	c3.495,0,6.801-1.577,9.002-4.292C511.616,456.946,512.472,453.383,511.747,449.964z M94.559,117.029h26.622
	c5.373,26.115,28.541,45.815,56.223,45.815c6.397,0,11.584-5.187,11.584-11.584s-5.187-11.584-11.584-11.584
	c-14.81,0-27.451-9.457-32.21-22.647h133.259c5.373,26.115,28.541,45.815,56.223,45.815c6.397,0,11.584-5.187,11.584-11.584
	s-5.187-11.584-11.584-11.584c-14.81,0-27.451-9.457-32.21-22.647h110.06L397.8,186.454H79.832L94.559,117.029z M343.851,440.786
	H25.882l49.036-231.165h317.968L343.851,440.786z"/>
<g>
</g>
<g>
</g>
<g>
</g>
<g>
</g>
<g>
</g>
<g>
</g>
<g>
</g>
<g>
</g>
<g>
</g>
<g>
</g>
<g>
</g>
<g>
</g>
<g>
</g>
<g>
</g>
<g>
</g>
</svg>
